<?xml version="1.0" standalone="no"?>
<!DOCTYPE svg PUBLIC "-//W3C//DTD SVG 1.1//EN" "http://www.w3.org/Graphics/SVG/1.1/DTD/svg11.dtd">
<svg xmlns="http://www.w3.org/2000/svg" viewBox="0 0 378.43 78.92" fill="#ffffff" width="378.42999267578125" height="78.91999816894531"><defs><style>.cls-1{fill-rule:evenodd;}</style></defs><g><g><path d="M355.34,38.06V9h5.69l11.96,19.48V9h5.44v29.06h-5.88l-11.78-19.1v19.1h-5.44Zm-13.89-11.53l-4.04-10.76-3.92,10.76h7.96Zm10.76,11.53h-6.34l-2.51-6.62h-11.66l-2.42,6.62h-6.22l11.28-29.06h6.22l11.64,29.06Zm-55.41,0V9h5.89v12.87l11.86-12.87h7.89l-10.97,11.32,11.53,17.74h-7.59l-8-13.65-4.73,4.86v8.79h-5.89Zm-23.51-16.76h4.34c2.81,0,4.57-.12,5.27-.36,.7-.24,1.25-.65,1.64-1.23,.4-.58,.6-1.31,.6-2.19,0-.98-.26-1.77-.78-2.37-.52-.6-1.26-.98-2.21-1.14-.48-.07-1.91-.1-4.28-.1h-4.58v7.39Zm-5.89,16.76V9h12.36c3.11,0,5.36,.26,6.77,.78,1.41,.52,2.54,1.45,3.38,2.78,.85,1.34,1.27,2.86,1.27,4.58,0,2.19-.64,3.98-1.91,5.4-1.28,1.42-3.19,2.31-5.73,2.69,1.26,.74,2.31,1.55,3.13,2.44,.82,.89,1.93,2.46,3.33,4.72l3.55,5.67h-7.01l-4.21-6.34c-1.51-2.25-2.54-3.67-3.1-4.26-.56-.58-1.14-.99-1.77-1.2-.63-.22-1.62-.32-2.97-.32h-1.19v12.14h-5.89Zm-13.89-11.53l-4.04-10.76-3.92,10.76h7.96Zm10.76,11.53h-6.34l-2.51-6.62h-11.66l-2.42,6.62h-6.22l11.28-29.06h6.22l11.64,29.06Zm-65.26,0V9h5.69l11.96,19.48V9h5.44v29.06h-5.88l-11.78-19.1v19.1h-5.44Zm-13.89-11.53l-4.04-10.76-3.92,10.76h7.96Zm10.76,11.53h-6.34l-2.51-6.62h-11.66l-2.42,6.62h-6.22l11.28-29.06h6.22l11.64,29.06Zm-55.49,0V9h5.89v11.45h11.45V9h5.89v29.06h-5.89v-12.7h-11.45v12.7h-5.89Zm-24.63,0V9.24h5.89v23.91h14.57v4.91h-20.46Zm-11.4-31.7V1.08h5.48V6.36h-5.48Zm-.24,31.7V9h5.89v29.06h-5.89Z"/><g><polygon class="cls-1" points="161.15 76.95 158.64 76.95 163.13 53.51 171.17 72.1 179.26 53.51 183.75 76.95 181.25 76.95 178.32 61.97 171.17 77.84 164.02 61.97 161.15 76.95"/><rect x="191.37" y="59.62" width="2.45" height="17.17"/><path class="cls-1" d="M192.6,52.87c1.07,0,1.93,.87,1.93,1.93s-.87,1.93-1.93,1.93-1.93-.87-1.93-1.93,.87-1.93,1.93-1.93"/><polygon class="cls-1" points="203.95 76.95 201.45 76.95 205.94 53.51 213.98 72.1 222.07 53.51 226.55 76.95 224.05 76.95 221.13 61.97 213.98 77.84 206.82 61.97 203.95 76.95"/><polygon class="cls-1" points="280.01 54.77 280.01 76.95 288.67 76.95 288.67 74.6 282.51 74.65 282.51 54.77 280.01 54.77"/><rect x="295.82" y="54.77" width="2.51" height="22.18"/><polygon class="cls-1" points="310.65 66.77 310.02 67.4 310.02 76.95 307.51 76.95 307.51 54.77 310.02 54.77 310.02 64.27 319.42 54.77 322.76 54.77 312.37 65.1 323.12 76.95 319.73 76.95 310.65 66.77"/><rect x="104.41" y="63.54" width="46.66" height="4.28"/><rect x="331.47" y="63.54" width="46.67" height="4.28"/><path class="cls-1" d="M248.9,69.12h3.24v-2.3h-4.2l-5.66-13.15-5.74,13.15h-4.49v2.3h3.45l-3.39,7.78h2.66l3.39-7.78h8l3.32,7.83,2.75-.04-3.32-7.79Zm-9.76-2.3l3.08-6.98,3.03,6.98h-6.11Z"/><path class="cls-1" d="M265.18,67.03s5.12-.07,5.56-5.17c.44-5.1-2.86-7-6.45-7.09h-4.96s.05,22.18,.05,22.18h2.51l-.05-9.71,.63-.05,6.68,9.76h3.13l-7.1-9.92Zm-3.34-2.24v-7.99l2.35,.04c5.93,.62,5.52,9.01-2.35,7.95Z"/></g><g><path class="cls-1" d="M19.37,28.57c0-1.05,.85-1.91,1.91-1.91s1.91,.85,1.91,1.91-.85,1.91-1.91,1.91-1.91-.85-1.91-1.91"/><path class="cls-1" d="M80.76,0H0V78.92H23.04V36.47h-3.75v38.7H3.72V3.72H80.76V75.17h-14.54l-15.66-41.55-17.48,45.3h3.93l5.62-14.69h15.72l5.5,14.69h20.62V0h-3.72ZM44.03,60.48l6.47-17.05,6.47,17.05h-12.94Z"/></g></g></g></svg>